<svg width="32" height="32" viewBox="0 0 32 32" fill="none" xmlns="http://www.w3.org/2000/svg">
<path fill-rule="evenodd" clip-rule="evenodd" d="M23.4122 19.0881L24.681 21.0799C24.9555 21.5114 24.9727 22.0583 24.7259 22.5062C24.4791 22.9542 24.0076 23.2318 23.4962 23.2303H8.06997C7.55939 23.2301 7.08945 22.9518 6.8438 22.5042C6.59816 22.0566 6.61578 21.5107 6.88979 21.0799L8.1446 19.1021C8.27005 18.9042 8.34383 18.6781 8.35918 18.4443L8.82565 11.5685C9.07557 7.7349 12.3697 4.81976 16.2052 5.03792C19.7659 5.30752 22.5723 8.17981 22.7592 11.7458L23.1977 18.4303C23.213 18.6641 23.2868 18.8902 23.4122 19.0881ZM18.1997 25.1006C18.0355 24.8127 17.7309 24.6334 17.3994 24.6298H14.1714C13.84 24.6334 13.5353 24.8127 13.3712 25.1006C13.207 25.3886 13.208 25.7421 13.3738 26.0292C13.8768 26.8833 14.7941 27.4077 15.7854 27.4077C16.7767 27.4077 17.694 26.8833 18.1971 26.0292C18.3628 25.7421 18.3638 25.3886 18.1997 25.1006Z" fill="#282828"/>
<circle cx="21" cy="6" r="4" fill="#EA2222"/>
</svg>
