<svg width="40" height="40" viewBox="0 0 40 40" fill="none" xmlns="http://www.w3.org/2000/svg">
<circle cx="20" cy="20" r="20" fill="white"/>
<path d="M21.3738 28.3333H18.6263" stroke="#F64F00" stroke-width="1.5" stroke-linecap="round" stroke-linejoin="round"/>
<path d="M20.0001 16.1326V18.8786" stroke="#F64F00" stroke-width="1.5" stroke-linecap="round" stroke-linejoin="round"/>
<path d="M28.3334 24.1587C28.3334 24.4203 28.2818 24.6794 28.1816 24.9211C28.0815 25.1628 27.9346 25.3824 27.7495 25.5674C27.5644 25.7524 27.3447 25.8992 27.1029 25.9993C26.861 26.0994 26.6018 26.1509 26.3401 26.1509H13.66C13.1313 26.1509 12.6243 25.941 12.2505 25.5674C11.8767 25.1938 11.6667 24.6871 11.6667 24.1587C11.6667 23.8444 11.7411 23.5347 11.8837 23.2546C12.0264 22.9746 12.2333 22.7323 12.4876 22.5475V22.5475C12.9431 22.2163 13.3139 21.7822 13.5695 21.2804C13.8251 20.7787 13.9583 20.2237 13.9583 19.6607V17.9272C13.9367 16.3725 14.5016 14.8666 15.5406 13.7093C16.5797 12.552 18.0166 11.8282 19.5655 11.682C20.3932 11.623 21.2243 11.7349 22.0069 12.0108C22.7894 12.2867 23.5068 12.7207 24.1143 13.2858C24.7219 13.8508 25.2065 14.5348 25.5381 15.2951C25.8697 16.0554 26.0411 16.8759 26.0417 17.7053V19.6607C26.0417 20.2237 26.1749 20.7787 26.4305 21.2804C26.6862 21.7822 27.0569 22.2163 27.5125 22.5475V22.5475C27.7667 22.7323 27.9736 22.9746 28.1163 23.2546C28.259 23.5346 28.3333 23.8444 28.3334 24.1587V24.1587Z" stroke="#828282" stroke-width="1.5" stroke-miterlimit="10" stroke-linecap="round"/>
</svg>
