<svg width="25" height="22" viewBox="0 0 25 22" fill="none" xmlns="http://www.w3.org/2000/svg">
<path d="M23.7294 12.5064C23.6305 9.89228 22.615 7.44076 20.8365 5.52249C20.958 5.27897 21.0071 5.0093 20.9764 4.7326C20.8986 4.03191 20.3361 3.34528 19.3046 2.69184C17.3707 1.46676 15.133 0.819183 12.8334 0.819183C10.5336 0.819183 8.29584 1.46672 6.36215 2.69184C5.33048 3.34528 4.76798 4.03196 4.69026 4.73269C4.6596 5.00939 4.70854 5.27907 4.83018 5.52249C3.0321 7.4619 2.01369 9.94637 1.93414 12.5928C1.29589 12.8015 0.833328 13.4023 0.833328 14.1094V19.5856C0.833328 20.4652 1.54892 21.1808 2.42849 21.1808H3.52363C3.79982 21.1808 4.02365 20.9569 4.02365 20.6808V20.6331H4.61891C5.49848 20.6331 6.21407 19.9175 6.21407 19.0379V14.6571C6.21407 13.7775 5.49843 13.0619 4.61891 13.0619H4.02374V13.0142C4.02374 12.738 3.79987 12.5142 3.52372 12.5142H2.93779C3.03397 10.1627 3.94705 7.95746 5.54123 6.22646C5.74528 6.32565 5.97037 6.37599 6.21464 6.37599C6.72651 6.37599 7.31583 6.14926 8.01609 5.68285C9.44405 4.73166 11.1098 4.22888 12.8334 4.22888C14.5568 4.22888 16.2226 4.73166 17.6506 5.6829C18.351 6.1494 18.9403 6.37608 19.4521 6.37604C19.6964 6.37599 19.9214 6.32579 20.1255 6.22655C21.7003 7.93665 22.6111 10.1093 22.7256 12.4288H22.1429C21.8667 12.4288 21.6429 12.6527 21.6429 12.9288V12.9762H21.0477C20.1681 12.9762 19.4524 13.6919 19.4524 14.5717V18.9526C19.4524 19.8321 20.1681 20.5477 21.0477 20.5477H21.643V20.5951C21.643 20.8713 21.8668 21.0951 22.143 21.0951H23.2381C24.1177 21.0951 24.8333 20.3796 24.8333 19.5V14.0239C24.8334 13.3157 24.3693 12.7141 23.7294 12.5064ZM3.02361 13.5143V13.5619H3.02366C3.02366 13.8381 3.24754 14.062 3.52368 14.062H4.61896C4.94713 14.062 5.21404 14.3289 5.21404 14.6571V19.0379C5.21404 19.3661 4.94709 19.633 4.61896 19.633H4.02374V16.5947C4.02374 16.3185 3.79987 16.0947 3.52372 16.0947C3.24758 16.0947 3.02371 16.3185 3.02371 16.5947V20.1807H2.42849C2.10032 20.1807 1.83341 19.9138 1.83341 19.5856V14.1094C1.83341 13.7812 2.10036 13.5143 2.42849 13.5143H3.02361ZM19.8371 5.21785C19.7278 5.32711 19.6091 5.37582 19.4521 5.37582C19.2431 5.37586 18.8572 5.28469 18.2051 4.85044C16.6123 3.78952 14.7548 3.2287 12.8334 3.2287C10.9118 3.2287 9.05428 3.78952 7.46161 4.85044C6.80967 5.28474 6.4236 5.37582 6.21459 5.37582C6.0576 5.37582 5.93892 5.32711 5.82965 5.2178C5.71635 5.10455 5.66882 4.98193 5.68424 4.84289C5.70356 4.66899 5.86031 4.19353 6.89733 3.53667C8.6707 2.41312 10.7234 1.81926 12.8334 1.81926C14.9432 1.81926 16.9958 2.41317 18.7694 3.53667C19.8063 4.19344 19.9631 4.66885 19.9824 4.84285C19.9979 4.98188 19.9503 5.1046 19.8371 5.21785ZM23.8333 19.5C23.8333 19.8282 23.5663 20.0951 23.2382 20.0951H22.6431V20.0476C22.6431 19.7714 22.4192 19.5476 22.1431 19.5476H21.0478C20.7196 19.5476 20.4526 19.2807 20.4526 18.9525V14.5716C20.4526 14.2434 20.7196 13.9763 21.0478 13.9763H21.6431V16.9807C21.6431 17.2569 21.8669 17.4807 22.1431 17.4807C22.4192 17.4807 22.6431 17.2568 22.6431 16.9807V13.4288H23.2382C23.5663 13.4288 23.8333 13.6958 23.8333 14.0239V19.5Z" fill="#828282"/>
</svg>
