<svg width="25" height="22" viewBox="0 0 25 22" fill="none" xmlns="http://www.w3.org/2000/svg">
<path d="M17.8204 0.522614C14.3154 0.522614 11.4742 3.36402 11.4742 6.86889C11.4742 10.3738 14.3154 13.2153 17.8204 13.2153C21.3254 13.2153 24.1666 10.3738 24.1666 6.86889C24.1666 3.36402 21.3254 0.522614 17.8204 0.522614ZM17.8204 11.7445C15.1276 11.7445 12.9449 9.56154 12.9449 6.86895C12.9449 4.17636 15.1276 1.99348 17.8204 1.99348C20.5131 1.99348 22.6958 4.17636 22.6958 6.86895C22.6958 9.56154 20.5131 11.7445 17.8204 11.7445Z" fill="#828282"/>
<path d="M22.8771 16.2906C21.5276 17.0354 19.6715 17.7241 17.8205 18.0145C16.1736 18.2727 13.0754 17.6499 13.0754 16.9142C13.0754 16.6355 15.7927 17.6011 17.4363 17.1625C18.6968 16.8263 18.5178 15.6472 17.8323 15.4917C17.1507 15.337 13.1575 13.8741 11.4518 13.8237C10.6484 13.7999 8.66468 14.1031 7.70481 14.2594C7.37599 14.3129 7.16981 14.3071 7.14924 14.6217C7.05373 16.0842 6.86547 19.0749 6.76286 20.6371C6.76069 20.6701 6.80656 21.114 7.17285 20.8016C7.57378 20.4597 8.13611 20.0808 8.65623 20.1988C9.47222 20.3839 16.5317 21.6772 17.5054 21.4509C18.8984 21.127 22.8418 18.7901 23.5978 18.0638C24.7697 16.9377 23.8587 15.7488 22.8771 16.2906Z" fill="#828282"/>
<path d="M5.20115 14.2024L1.50289 14.0202C1.21736 14.0061 0.925746 14.2213 0.854787 14.4982L0.182333 20.6034C0.111442 20.8804 0.287182 21.116 0.572845 21.1271L4.67143 21.1266C4.95716 21.1377 5.20866 20.9135 5.23058 20.6284L5.68068 14.7462C5.70246 14.4612 5.48668 14.2165 5.20115 14.2024ZM3.02394 20.3178C2.45918 20.3178 2.00143 19.86 2.00143 19.2953C2.00143 18.7305 2.45925 18.2728 3.02394 18.2728C3.58864 18.2728 4.04646 18.7306 4.04646 19.2953C4.04646 19.8601 3.58871 20.3178 3.02394 20.3178Z" fill="#828282"/>
</svg>
