<svg width="80" height="80" viewBox="0 0 80 80" fill="none" xmlns="http://www.w3.org/2000/svg">
<g clip-path="url(#clip0_1_289)">
<path d="M33.3587 16.6814C33.7959 18.0332 35.1598 18.8431 36.562 18.6134C37.7225 18.424 38.901 18.3273 40.0877 18.3273C50.9849 18.3273 60.0368 26.3799 61.6062 36.8461C61.8157 38.2442 63.0145 39.2798 64.4267 39.2798H77.1432C78.8376 39.2798 80.1511 37.8111 79.9819 36.1248C79.4863 31.1748 78.068 26.3154 75.8095 21.8832C72.9507 16.2724 68.7482 11.3506 63.6531 7.64965C58.558 3.94873 52.5785 1.4707 46.3593 0.485531C41.4617 -0.290112 36.419 -0.139013 31.5717 0.910623C29.9157 1.26923 28.9244 2.9696 29.4462 4.58334L31.058 9.56559L33.3587 16.6814Z" fill="#F64F00"/>
<path d="M55.4292 77.1271C60.3168 75.1024 64.6946 72.1771 68.4359 68.4359C72.1771 64.6926 75.1024 60.3168 77.1271 55.4293C78.6441 51.7666 79.6011 47.9508 79.9859 44.0444C80.1511 42.3582 78.8375 40.8935 77.1432 40.8935H64.4287C63.0104 40.8935 61.8157 41.9351 61.6042 43.3353C60.1899 52.7336 52.7397 60.1859 43.3413 61.6022C41.9391 61.8137 40.8995 63.0104 40.8995 64.4267L40.9016 73.1139V77.1432C40.9016 78.8375 42.3682 80.1511 44.0525 79.9839C47.9589 79.5991 51.7706 78.6421 55.4292 77.1271Z" fill="url(#paint0_linear_1_289)"/>
<path d="M17.185 48.382L5.09306 52.3146C3.48133 52.8384 2.68957 54.6375 3.36851 56.1908C6.21522 62.7062 10.7099 68.3009 16.5303 72.5276C22.3466 76.7524 29.0574 79.2949 36.1288 79.9859C37.8151 80.1511 39.2818 78.8416 39.2818 77.1472V64.4287C39.2818 63.0164 38.2483 61.8157 36.8501 61.6082C29.833 60.5646 23.781 56.1686 20.62 49.8225C19.9894 48.5573 18.5288 47.9448 17.185 48.382Z" fill="#FFB531"/>
<path d="M19.929 26.4182L9.65019 18.9398C8.28022 17.9425 6.35421 18.3575 5.5 19.8202C2.98772 24.1154 1.27526 28.8781 0.493576 33.7898C-0.288111 38.7036 -0.137012 43.7624 0.918668 48.6237C1.27728 50.2798 2.97966 51.271 4.59139 50.7492L16.6854 46.8287C18.0372 46.3915 18.8451 45.0276 18.6154 43.6254C18.424 42.4609 18.3293 41.2783 18.3293 40.0876C18.3293 36.5479 19.1694 33.131 20.7771 30.0486C21.4319 28.7955 21.0733 27.2523 19.929 26.4182Z" fill="#F5AF19"/>
<path d="M24.0026 3.36045C18.698 5.67327 14.0039 9.08207 10.1599 13.4055C9.03775 14.6687 9.23921 16.6229 10.6051 17.6182L20.894 25.1127C22.0403 25.9488 23.6178 25.8037 24.6171 24.7964C26.2893 23.1101 28.2334 21.6979 30.3468 20.6341C31.614 19.9955 32.2385 18.5429 31.8014 17.1931L27.8687 5.09104C27.3469 3.48133 25.5519 2.68554 24.0026 3.36045Z" fill="#FFB531" fill-opacity="0.52"/>
</g>
<defs>
<linearGradient id="paint0_linear_1_289" x1="74.0386" y1="40.8975" x2="40.8975" y2="73.2328" gradientUnits="userSpaceOnUse">
<stop stop-color="#FF4906"/>
<stop offset="0.515519" stop-color="#FF8B60"/>
<stop offset="1" stop-color="#FFA685"/>
</linearGradient>
<clipPath id="clip0_1_289">
<rect width="80" height="80" fill="white"/>
</clipPath>
</defs>
</svg>
