<svg width="21" height="16" viewBox="0 0 21 16" fill="none" xmlns="http://www.w3.org/2000/svg">
<path fill-rule="evenodd" clip-rule="evenodd" d="M10.5 1.64104C8.31511 1.64104 5.32569 1.8273 3.47713 1.95991C2.8767 2.00298 2.40208 2.4655 2.34445 3.05893C2.20562 4.48831 2.03844 6.53061 2.03844 8.05131C2.03844 9.57201 2.20562 11.6143 2.34445 13.0436C2.40208 13.6371 2.8767 14.0996 3.47713 14.1427C5.32569 14.2753 8.31511 14.4615 10.5 14.4615C12.6849 14.4615 15.6743 14.2753 17.5229 14.1427C18.1233 14.0996 18.5979 13.6371 18.6555 13.0436C18.7944 11.6143 18.9615 9.57201 18.9615 8.05131C18.9615 6.53061 18.7944 4.48831 18.6555 3.05893C18.5979 2.4655 18.1233 2.00298 17.5229 1.95991C15.6743 1.8273 12.6849 1.64104 10.5 1.64104ZM3.36705 0.42539C5.21629 0.29273 8.25453 0.10257 10.5 0.10257C12.7455 0.10257 15.7837 0.29273 17.6329 0.42539C18.9758 0.52172 20.0561 1.56443 20.1868 2.9102C20.326 4.34331 20.5 6.44991 20.5 8.05131C20.5 9.65271 20.326 11.7593 20.1868 13.1924C20.0561 14.5381 18.9758 15.5809 17.6329 15.6772C15.7837 15.8098 12.7454 16 10.5 16C8.25453 16 5.21628 15.8098 3.36705 15.6772C2.02414 15.5809 0.943905 14.5381 0.813195 13.1924C0.674005 11.7593 0.499985 9.65271 0.499985 8.05131C0.499985 6.44991 0.674005 4.34331 0.813195 2.9102C0.943905 1.56443 2.02414 0.52172 3.36705 0.42539Z" fill="#828282"/>
</svg>
